<svg width="470" height="40" viewBox="0 0 470 40" fill="none" xmlns="http://www.w3.org/2000/svg">
<rect width="320" height="40" rx="8" fill="#F9F9F8"/>
<path fill-rule="evenodd" clip-rule="evenodd" d="M20.3334 13.3333C17.5719 13.3333 15.3334 15.5719 15.3334 18.3333C15.3334 21.0947 17.5719 23.3333 20.3334 23.3333C23.0948 23.3333 25.3334 21.0947 25.3334 18.3333C25.3334 15.5719 23.0948 13.3333 20.3334 13.3333ZM13.6667 18.3333C13.6667 14.6514 16.6515 11.6666 20.3334 11.6666C24.0153 11.6666 27 14.6514 27 18.3333C27 19.8739 26.4775 21.2924 25.5999 22.4213L30.0893 26.9107C30.4147 27.2361 30.4147 27.7638 30.0893 28.0892C29.7638 28.4147 29.2362 28.4146 28.9108 28.0892L24.4214 23.5998C23.2925 24.4774 21.874 25 20.3334 25C16.6515 25 13.6667 22.0152 13.6667 18.3333Z" fill="#A9A9A9"/>
<path d="M62.8011 17.3636C62.7415 16.8598 62.4995 16.4688 62.0753 16.1903C61.651 15.9119 61.1307 15.7727 60.5142 15.7727C60.0634 15.7727 59.669 15.8456 59.331 15.9915C58.9962 16.1373 58.7344 16.3378 58.5455 16.593C58.3598 16.8482 58.267 17.1383 58.267 17.4631C58.267 17.7348 58.3317 17.9685 58.4609 18.1641C58.5935 18.3563 58.7625 18.517 58.968 18.6463C59.1735 18.7723 59.389 18.8767 59.6143 18.9595C59.8397 19.0391 60.0469 19.1037 60.2358 19.1534L61.2699 19.4318C61.535 19.5014 61.83 19.5975 62.1548 19.7202C62.483 19.8428 62.7962 20.0102 63.0945 20.2223C63.3961 20.4311 63.6446 20.6996 63.8402 21.0277C64.0357 21.3558 64.1335 21.7585 64.1335 22.2358C64.1335 22.786 63.9893 23.2831 63.701 23.7273C63.416 24.1714 62.9983 24.5244 62.4482 24.7862C61.9013 25.0481 61.2367 25.179 60.4545 25.179C59.7254 25.179 59.094 25.0613 58.5604 24.826C58.0301 24.5907 57.6125 24.2625 57.3075 23.8416C57.0059 23.4207 56.8352 22.9318 56.7955 22.375H58.0682C58.1013 22.7595 58.2306 23.0777 58.456 23.3295C58.6847 23.5781 58.973 23.7637 59.321 23.8864C59.6723 24.0057 60.0502 24.0653 60.4545 24.0653C60.9252 24.0653 61.3478 23.9891 61.7223 23.8366C62.0968 23.6809 62.3935 23.4654 62.6122 23.1903C62.831 22.9119 62.9403 22.5871 62.9403 22.2159C62.9403 21.8778 62.8459 21.6027 62.657 21.3906C62.468 21.1785 62.2195 21.0062 61.9112 20.8736C61.603 20.741 61.2699 20.625 60.9119 20.5256L59.6591 20.1676C58.8636 19.9389 58.2339 19.6125 57.7699 19.1882C57.3059 18.764 57.0739 18.2088 57.0739 17.5227C57.0739 16.9527 57.228 16.4555 57.5362 16.0312C57.8478 15.6037 58.2654 15.2723 58.7891 15.0369C59.3161 14.7983 59.9044 14.679 60.554 14.679C61.2102 14.679 61.7936 14.7966 62.304 15.032C62.8144 15.264 63.2188 15.5821 63.517 15.9865C63.8187 16.3909 63.9777 16.8499 63.9943 17.3636H62.8011ZM69.2033 25.1591C68.4675 25.1591 67.8328 24.9967 67.2992 24.6719C66.7689 24.3438 66.3596 23.8864 66.0712 23.2997C65.7862 22.7098 65.6436 22.0237 65.6436 21.2415C65.6436 20.4593 65.7862 19.7699 66.0712 19.1733C66.3596 18.5734 66.7606 18.1061 67.2743 17.7713C67.7914 17.4332 68.3946 17.2642 69.084 17.2642C69.4817 17.2642 69.8745 17.3305 70.2623 17.4631C70.65 17.5956 71.003 17.8111 71.3212 18.1094C71.6394 18.4044 71.8929 18.7955 72.0819 19.2827C72.2708 19.7699 72.3652 20.3698 72.3652 21.0824V21.5795H66.4789V20.5653H71.1721C71.1721 20.1345 71.0859 19.75 70.9135 19.4119C70.7445 19.0739 70.5025 18.8071 70.1877 18.6115C69.8761 18.416 69.5082 18.3182 69.084 18.3182C68.6167 18.3182 68.2123 18.4342 67.8709 18.6662C67.5328 18.8949 67.2727 19.1932 67.0904 19.5611C66.9081 19.929 66.8169 20.3234 66.8169 20.7443V21.4205C66.8169 21.9972 66.9164 22.486 67.1152 22.8871C67.3174 23.2848 67.5975 23.5881 67.9554 23.7969C68.3134 24.0024 68.7293 24.1051 69.2033 24.1051C69.5115 24.1051 69.79 24.062 70.0385 23.9759C70.2904 23.8864 70.5075 23.7538 70.6898 23.5781C70.8721 23.3991 71.013 23.1771 71.1124 22.9119L72.2459 23.2301C72.1266 23.6146 71.9261 23.9527 71.6444 24.2443C71.3626 24.5327 71.0146 24.758 70.6003 24.9205C70.186 25.0795 69.7203 25.1591 69.2033 25.1591ZM76.3972 25.179C75.9133 25.179 75.4741 25.0878 75.0797 24.9055C74.6853 24.7199 74.3721 24.4531 74.1401 24.1051C73.9081 23.7538 73.7921 23.3295 73.7921 22.8324C73.7921 22.3949 73.8783 22.0402 74.0506 21.7685C74.223 21.4934 74.4533 21.2779 74.7417 21.1222C75.03 20.9664 75.3482 20.8504 75.6962 20.7741C76.0475 20.6946 76.4005 20.6316 76.7551 20.5852C77.2192 20.5256 77.5953 20.4808 77.8837 20.451C78.1754 20.4179 78.3875 20.3632 78.5201 20.2869C78.656 20.2107 78.7239 20.0781 78.7239 19.8892V19.8494C78.7239 19.3589 78.5897 18.9777 78.3212 18.706C78.056 18.4342 77.6534 18.2983 77.1131 18.2983C76.553 18.2983 76.1138 18.4209 75.7956 18.6662C75.4775 18.9115 75.2537 19.1733 75.1245 19.4517L74.0108 19.054C74.2097 18.59 74.4748 18.2287 74.8063 17.9702C75.141 17.7083 75.5056 17.526 75.9 17.4233C76.2978 17.3172 76.6889 17.2642 77.0733 17.2642C77.3186 17.2642 77.6003 17.294 77.9185 17.3537C78.24 17.41 78.5499 17.5277 78.8482 17.7067C79.1498 17.8857 79.4 18.1558 79.5989 18.517C79.7978 18.8783 79.8972 19.3622 79.8972 19.9688V25H78.7239V23.9659H78.6642C78.5847 24.1316 78.4521 24.3089 78.2665 24.4979C78.0809 24.6868 77.834 24.8475 77.5257 24.9801C77.2175 25.1127 76.8413 25.179 76.3972 25.179ZM76.5762 24.125C77.0402 24.125 77.4313 24.0339 77.7495 23.8516C78.071 23.6693 78.3129 23.4339 78.4753 23.1456C78.641 22.8572 78.7239 22.554 78.7239 22.2358V21.1619C78.6742 21.2216 78.5648 21.2763 78.3958 21.326C78.2301 21.3724 78.0378 21.4138 77.8191 21.4503C77.6036 21.4834 77.3932 21.5133 77.1877 21.5398C76.9855 21.563 76.8214 21.5829 76.6955 21.5994C76.3906 21.6392 76.1055 21.7038 75.8404 21.7933C75.5785 21.8795 75.3664 22.0104 75.204 22.1861C75.0449 22.3584 74.9654 22.5937 74.9654 22.892C74.9654 23.2997 75.1162 23.608 75.4178 23.8168C75.7227 24.0223 76.1088 24.125 76.5762 24.125ZM82.0387 25V17.3636H83.1722V18.517H83.2518C83.391 18.1392 83.6429 17.8326 84.0075 17.5973C84.372 17.362 84.783 17.2443 85.2404 17.2443C85.3266 17.2443 85.4343 17.246 85.5636 17.2493C85.6928 17.2526 85.7906 17.2576 85.8569 17.2642V18.4574C85.8171 18.4474 85.726 18.4325 85.5835 18.4126C85.4442 18.3894 85.2968 18.3778 85.141 18.3778C84.7698 18.3778 84.4383 18.4557 84.1467 18.6115C83.8583 18.764 83.6296 18.9761 83.4606 19.2479C83.2949 19.5163 83.212 19.8229 83.212 20.1676V25H82.0387ZM90.1175 25.1591C89.4016 25.1591 88.7852 24.9901 88.2681 24.652C87.7511 24.3139 87.3533 23.8482 87.0749 23.255C86.7965 22.6617 86.6573 21.9839 86.6573 21.2216C86.6573 20.446 86.7998 19.7616 87.0849 19.1683C87.3732 18.5717 87.7743 18.1061 88.288 17.7713C88.805 17.4332 89.4083 17.2642 90.0977 17.2642C90.6346 17.2642 91.1185 17.3636 91.5494 17.5625C91.9802 17.7614 92.3332 18.0398 92.6083 18.3977C92.8834 18.7557 93.0541 19.1733 93.1204 19.6506H91.9471C91.8576 19.3026 91.6587 18.9943 91.3505 18.7259C91.0456 18.4541 90.6346 18.3182 90.1175 18.3182C89.6602 18.3182 89.2591 18.4375 88.9144 18.6761C88.573 18.9115 88.3062 19.2446 88.114 19.6754C87.9251 20.103 87.8306 20.6051 87.8306 21.1818C87.8306 21.7718 87.9234 22.2855 88.109 22.723C88.2979 23.1605 88.5631 23.5002 88.9045 23.7422C89.2492 23.9841 89.6535 24.1051 90.1175 24.1051C90.4225 24.1051 90.6992 24.0521 90.9478 23.946C91.1964 23.84 91.4068 23.6875 91.5792 23.4886C91.7515 23.2898 91.8742 23.0511 91.9471 22.7727H93.1204C93.0541 23.2235 92.89 23.6295 92.6282 23.9908C92.3697 24.3487 92.0266 24.6338 91.5991 24.8459C91.1748 25.0547 90.681 25.1591 90.1175 25.1591ZM96.0089 20.4062V25H94.8356V14.8182H96.0089V18.5568H96.1083C96.2873 18.1624 96.5558 17.8492 96.9137 17.6172C97.275 17.3819 97.7556 17.2642 98.3555 17.2642C98.8758 17.2642 99.3316 17.3686 99.7227 17.5774C100.114 17.7829 100.417 18.0994 100.632 18.527C100.851 18.9512 100.961 19.4915 100.961 20.1477V25H99.7873V20.2273C99.7873 19.6207 99.6299 19.1518 99.315 18.8203C99.0034 18.4856 98.5709 18.3182 98.0174 18.3182C97.6329 18.3182 97.2882 18.3994 96.9833 18.5618C96.6817 18.7242 96.4431 18.9612 96.2674 19.2727C96.0951 19.5843 96.0089 19.9621 96.0089 20.4062ZM103.962 25.0795C103.717 25.0795 103.506 24.9917 103.331 24.8161C103.155 24.6404 103.067 24.4299 103.067 24.1847C103.067 23.9394 103.155 23.7289 103.331 23.5533C103.506 23.3776 103.717 23.2898 103.962 23.2898C104.207 23.2898 104.418 23.3776 104.594 23.5533C104.769 23.7289 104.857 23.9394 104.857 24.1847C104.857 24.3471 104.816 24.4962 104.733 24.6321C104.653 24.768 104.546 24.8774 104.41 24.9602C104.277 25.0398 104.128 25.0795 103.962 25.0795ZM107.818 25.0795C107.572 25.0795 107.362 24.9917 107.186 24.8161C107.011 24.6404 106.923 24.4299 106.923 24.1847C106.923 23.9394 107.011 23.7289 107.186 23.5533C107.362 23.3776 107.572 23.2898 107.818 23.2898C108.063 23.2898 108.273 23.3776 108.449 23.5533C108.625 23.7289 108.713 23.9394 108.713 24.1847C108.713 24.3471 108.671 24.4962 108.588 24.6321C108.509 24.768 108.401 24.8774 108.265 24.9602C108.133 25.0398 107.983 25.0795 107.818 25.0795ZM111.673 25.0795C111.428 25.0795 111.217 24.9917 111.042 24.8161C110.866 24.6404 110.778 24.4299 110.778 24.1847C110.778 23.9394 110.866 23.7289 111.042 23.5533C111.217 23.3776 111.428 23.2898 111.673 23.2898C111.918 23.2898 112.129 23.3776 112.305 23.5533C112.48 23.7289 112.568 23.9394 112.568 24.1847C112.568 24.3471 112.527 24.4962 112.444 24.6321C112.364 24.768 112.256 24.8774 112.121 24.9602C111.988 25.0398 111.839 25.0795 111.673 25.0795Z" fill="#A3A3A3"/>
<rect x="273.098" y="6.5" width="40.4023" height="27" rx="5.5" fill="white"/>
<path fill-rule="evenodd" clip-rule="evenodd" d="M280.598 16.4C280.598 15.0745 281.672 14 282.998 14C284.323 14 285.398 15.0745 285.398 16.4V17.6H287.798V16.4C287.798 15.0745 288.872 14 290.198 14C291.523 14 292.598 15.0745 292.598 16.4C292.598 17.7255 291.523 18.8 290.198 18.8H288.998V21.2H290.198C291.523 21.2 292.598 22.2745 292.598 23.6C292.598 24.9255 291.523 26 290.198 26C288.872 26 287.798 24.9255 287.798 23.6V22.4H285.398V23.6C285.398 24.9255 284.323 26 282.998 26C281.672 26 280.598 24.9255 280.598 23.6C280.598 22.2745 281.672 21.2 282.998 21.2H284.198V18.8H282.998C281.672 18.8 280.598 17.7255 280.598 16.4ZM284.198 17.6V16.4C284.198 15.7373 283.66 15.2 282.998 15.2C282.335 15.2 281.798 15.7373 281.798 16.4C281.798 17.0627 282.335 17.6 282.998 17.6H284.198ZM285.398 18.8V21.2H287.798V18.8H285.398ZM284.198 22.4H282.998C282.335 22.4 281.798 22.9373 281.798 23.6C281.798 24.2627 282.335 24.8 282.998 24.8C283.66 24.8 284.198 24.2627 284.198 23.6V22.4ZM288.998 22.4V23.6C288.998 24.2627 289.535 24.8 290.198 24.8C290.86 24.8 291.398 24.2627 291.398 23.6C291.398 22.9373 290.86 22.4 290.198 22.4H288.998ZM288.998 17.6H290.198C290.86 17.6 291.398 17.0627 291.398 16.4C291.398 15.7373 290.86 15.2 290.198 15.2C289.535 15.2 288.998 15.7373 288.998 16.4V17.6Z" fill="black"/>
<path d="M298.598 25V15H299.809V19.9609H299.926L304.418 15H306L301.801 19.5117L306 25H304.535L301.059 20.3516L299.809 21.7578V25H298.598Z" fill="black"/>
<rect x="273.098" y="6.5" width="40.4023" height="27" rx="5.5" stroke="#F1F1F1"/>
<path fill-rule="evenodd" clip-rule="evenodd" d="M354.877 19.9998C354.877 16.3421 357.842 13.377 361.5 13.377C365.158 13.377 368.123 16.3421 368.123 19.9998C368.123 23.6574 365.158 26.6226 361.5 26.6226C357.842 26.6226 354.877 23.6574 354.877 19.9998ZM361.5 14.327C358.367 14.327 355.827 16.8668 355.827 19.9998C355.827 23.1328 358.367 25.6726 361.5 25.6726C364.633 25.6726 367.173 23.1328 367.173 19.9998C367.173 16.8668 364.633 14.327 361.5 14.327ZM362.25 23.0001C362.25 23.4143 361.914 23.7501 361.5 23.7501C361.086 23.7501 360.75 23.4143 360.75 23.0001C360.75 22.5858 361.086 22.2501 361.5 22.2501C361.914 22.2501 362.25 22.5858 362.25 23.0001ZM360.05 18.7501C360.05 18.0722 360.635 17.4251 361.5 17.4251C362.365 17.4251 362.95 18.0722 362.95 18.7501C362.95 19.2412 362.68 19.4922 362.214 19.775C362.162 19.8066 362.103 19.8414 362.038 19.8786L362.038 19.8786C361.855 19.985 361.638 20.1112 361.474 20.2386C361.232 20.4274 360.95 20.732 360.95 21.2001C360.95 21.5038 361.196 21.7501 361.5 21.7501C361.802 21.7501 362.048 21.5061 362.05 21.2042L362.051 21.2034C362.059 21.1897 362.085 21.1574 362.151 21.1063C362.252 21.0272 362.365 20.9617 362.516 20.8744L362.516 20.8744C362.594 20.8289 362.683 20.7775 362.786 20.7151C363.32 20.3904 364.05 19.8539 364.05 18.7501C364.05 17.428 362.935 16.3251 361.5 16.3251C360.065 16.3251 358.95 17.428 358.95 18.7501C358.95 19.0538 359.196 19.3001 359.5 19.3001C359.804 19.3001 360.05 19.0538 360.05 18.7501Z" fill="black"/>
<path fill-rule="evenodd" clip-rule="evenodd" d="M409.601 13.7508C409.601 14.2546 409.263 14.6792 408.801 14.8099C411.146 14.9647 413 16.9158 413 19.3V22.75C413 23.5562 413.033 24.2074 413.724 24.5528C413.931 24.6565 414.04 24.8892 413.987 25.1148C413.933 25.3405 413.732 25.5 413.5 25.5H409.161C409.369 25.6832 409.5 25.9513 409.5 26.25C409.5 26.8022 409.052 27.25 408.5 27.25C407.948 27.25 407.5 26.8022 407.5 26.25C407.5 25.9513 407.631 25.6832 407.839 25.5H403.5C403.268 25.5 403.067 25.3405 403.013 25.1148C402.96 24.8892 403.069 24.6565 403.276 24.5528C403.967 24.2074 404 23.5562 404 22.75V19.3C404 16.9153 405.855 14.9639 408.2 14.8098C407.739 14.6791 407.4 14.2544 407.4 13.7508C407.4 13.1431 407.893 12.6504 408.501 12.6504C409.109 12.6504 409.601 13.1431 409.601 13.7508ZM408.5 15.8C406.567 15.8 405 17.367 405 19.3V22.75L405 22.8009C405 23.2463 405.001 23.9084 404.699 24.5H412.301C411.999 23.9084 411.999 23.2463 412 22.8009L412 22.75V19.3C412 17.367 410.433 15.8 408.5 15.8Z" fill="black"/>
<rect x="438" y="4" width="32" height="32" rx="16" fill="#1B1B18"/>
<g style="mix-blend-mode:difference">
<path d="M450 14.6C450 14.2686 450.269 14 450.6 14H451.65C451.981 14 452.25 14.2686 452.25 14.6V15.925C452.25 16.4584 452.25 16.7271 452.384 16.8625C452.521 17 452.796 17 453.35 17L456.15 17C456.481 17 456.75 17.2686 456.75 17.6V18.65C456.75 18.9814 456.481 19.25 456.15 19.25H453.037C452.665 19.25 452.469 19.2522 452.365 19.3513C452.252 19.4601 452.25 19.6858 452.25 20.1539L452.25 22.675C452.25 23.2084 452.25 23.4771 452.384 23.6125C452.521 23.75 452.796 23.75 453.35 23.75H457.4C457.731 23.75 458 24.0186 458 24.35V25.4C458 25.7314 457.731 26 457.4 26H452.85C452.519 26 452.25 25.7314 452.25 25.4V24.6539C452.25 24.1858 452.248 23.9601 452.135 23.8513C452.031 23.752 451.834 23.75 451.46 23.75C451.452 23.75 451.445 23.75 451.438 23.75H450.6C450.269 23.75 450 23.4814 450 23.15V19.85C450 19.5186 450.269 19.25 450.6 19.25L451.15 19.25C451.704 19.25 451.979 19.25 452.116 19.1125C452.25 18.9771 452.25 18.7084 452.25 18.175L452.25 17.9039C452.25 17.4358 452.248 17.2101 452.135 17.1013C452.031 17.0022 451.835 17 451.463 17H450.6C450.269 17 450 16.7314 450 16.4V14.6Z" fill="white"/>
</g>
</svg>
